# xmcd
#
# Track frame offsets: 
#        150
#        17532
#        31930
#        44885
#        62230
#        78915
#        89322
#        106475
#        120202
#        133162
#        142897
#        156285
#        164860
#        179537
#        198045
#        210705
#        225925
#        242125
#        258100
#        274677
#        291230
#        310985
#        323812
#
# Disc length: 4549 seconds
#
# Revision: 2
# Processed by: cddbd v1.5.2PL0 Copyright (c) Steve Scherf et al.
# Submitted via: ExactAudioCopy v0.99pb4
#
DISCID=4411c317
DTITLE=Dillard and Clark - The Fantastic Expedition Of Dillard and Clark &
DTITLE=Through The Morning, Through The Night
DYEAR=1998
DGENRE=Country
TTITLE0=Out On The Side
TTITLE1=She Darked The Sun
TTITLE2=Don't Come Rollin'
TTITLE3=Train Leaves Here This Mornin'
TTITLE4=Why Not Your Baby
TTITLE5=Lyin' Down The Middle
TTITLE6=With Care From Someone
TTITLE7=The Radio Song
TTITLE8=Git It On (Git In Line Brother)
TTITLE9=In The Plan
TTITLE10=Something's Wrong
TTITLE11=Don't Be Cruel
TTITLE12=No Longer A Sweetheart Of Mine
TTITLE13=Through The Morning, Through The Night
TTITLE14=Rocky Top
TTITLE15=So Sad
TTITLE16=Corner Street Bar
TTITLE17=I Bowed My Head And Cried Holy
TTITLE18=Kansas City Southern
TTITLE19=Four Walls
TTITLE20=Polly
TTITLE21=Roll In My Sweet Baby's Arms
TTITLE22=Don't Let Me Down
EXTD=
EXTT0=
EXTT1=
EXTT2=
EXTT3=
EXTT4=
EXTT5=
EXTT6=
EXTT7=
EXTT8=
EXTT9=
EXTT10=
EXTT11=
EXTT12=
EXTT13=
EXTT14=
EXTT15=
EXTT16=
EXTT17=
EXTT18=
EXTT19=
EXTT20=
EXTT21=
EXTT22=
PLAYORDER=
